<svg xmlns="http://www.w3.org/2000/svg" width="46px" height="46px" viewBox="0 0 48 48">
  <path fill="#FFC107" d="M43.6 20.5H42V20H24v8h11.3C34.4 32.9 29.7 36 24 36c-7.7 0-14-6.3-14-14s6.3-14 14-14c3.5 0 6.7 1.3 9.2 3.5l5.7-5.7C35.2 3.1 29.9 1 24 1 11.8 1 2 10.8 2 23s9.8 22 22 22 22-9.8 22-22c0-1.3-.1-2.5-.4-3.5z"/>
  <path fill="#FF3D00" d="M6.3 14.7l6.6 4.8C14.7 15.2 18 13 22 13c3.5 0 6.7 1.3 9.2 3.5l5.7-5.7C35.2 3.1 29.9 1 24 1 15 1 7.4 6 3.6 14.2l2.7 2.1z"/>
  <path fill="#4CAF50" d="M24 45c5.5 0 10.5-2.1 14.2-5.6l-6.6-5.4C29.6 36.1 26.9 37 24 37c-5.6 0-10.3-3.1-12.7-7.6l-6.6 5.1C7.4 40.7 15 45 24 45z"/>
  <path fill="#1976D2" d="M43.6 20.5H42V20H24v8h11.3c-1.1 3.9-4.4 7-8.3 7v8c7.7 0 14-6.3 14-14 0-1.3-.1-2.5-.4-3.5z"/>
</svg>
